#N canvas 52 25 1356 877 10;
#X obj 57 57 mrpeach/unpackOSC;
#X obj 57 34 mrpeach/udpreceive 6161;
#X text 53 14 Receive From Unity;
#N canvas 208 56 1228 864 soundplayer 1;
#X obj 45 58 bng 15 250 50 0 empty empty empty 17 7 0 10 -262144 -1
-1;
#X obj 46 85 pipe 1000;
#X obj 248 151 tgl 15 0 empty empty ch5 -2 -9 0 10 -262144 -1 -1 1
1;
#X obj 252 794 *~;
#X obj 144 42 loadbang;
#X msg 142 71 1;
#X text 109 18 read long files from disk;
#X text 508 22 read short samples to RAM table;
#X obj 567 71 bng 15 250 50 0 empty empty empty 17 7 0 10 -262144 -1
-1;
#N canvas 991 115 771 517 voicebank2 0;
#X obj 60 55 poly 4 1;
#X obj 75 177 gate 4;
#X floatatom 56 115 5 0 0 0 - - -, f 5;
#X obj 55 9 bng 15 250 50 0 empty empty empty 17 7 0 10 -262144 -1
-1;
#X msg 58 33 60 64;
#X obj 183 -64 inlet;
#X obj 328 -31 monoSamplePlay galapagos-samples/BASsample2.wav 2;
#X obj 326 144 monoSamplePlay galapagos-samples/BASsample2.wav 2;
#X obj 325 320 monoSamplePlay galapagos-samples/BASsample2.wav 2;
#X obj 323 495 monoSamplePlay galapagos-samples/BASsample2.wav 2;
#X connect 0 0 2 0;
#X connect 0 0 1 0;
#X connect 1 0 6 0;
#X connect 1 1 7 0;
#X connect 1 2 8 0;
#X connect 1 3 9 0;
#X connect 3 0 4 0;
#X connect 3 0 1 1;
#X connect 4 0 0 0;
#X connect 5 0 3 0;
#X restore 679 100 pd voicebank2;
#X obj 679 72 bng 15 250 50 0 empty empty empty 17 7 0 10 -262144 -1
-1;
#X obj 260 599 readsf~;
#X msg 248 523 open galapagos-stems/BAS.aif;
#X msg 266 548 1;
#X msg 257 573 0;
#X obj 260 656 dac~ 1;
#X obj 475 597 readsf~;
#X msg 476 548 1;
#X msg 475 571 0;
#X msg 465 522 open galapagos-stems/FX.aif;
#X obj 475 654 dac~ 2;
#X obj 689 601 readsf~;
#X msg 688 548 1;
#X msg 689 576 0;
#X obj 908 599 readsf~;
#X msg 905 548 1;
#X msg 906 571 0;
#X obj 689 658 dac~ 3;
#X obj 908 656 dac~ 4;
#X msg 677 522 open galapagos-stems/KEYS.aif;
#X msg 894 521 open galapagos-stems/SYNTHBAS.aif;
#X obj 251 769 readsf~;
#X msg 251 735 0;
#X obj 478 761 readsf~;
#X msg 474 709 1;
#X msg 474 734 0;
#X obj 685 760 readsf~;
#X msg 686 707 1;
#X msg 688 732 0;
#X obj 906 755 readsf~;
#X msg 903 706 1;
#X msg 906 732 0;
#X obj 254 817 dac~ 5;
#X obj 478 811 dac~ 6;
#X obj 685 810 dac~ 7;
#X obj 906 805 dac~ 8;
#X msg 246 682 open galapagos-stems/DJ.aif;
#X msg 463 681 open galapagos-stems/EWI.aif;
#X msg 675 681 open galapagos-stems/DRUMS.aif;
#X msg 892 680 open galapagos-stems/EXTRA.aif;
#X msg 248 709 1;
#X obj 107 140 bng 27 250 50 0 empty empty empty 17 7 0 10 -258049
-1 -1;
#X obj 98 187 bang;
#X obj 107 112 bng 27 250 50 0 empty empty empty 17 7 0 10 -4033 -1
-1;
#X obj 131 187 pipe 1000;
#X obj 274 152 tgl 15 0 empty empty ch6 -2 -9 0 10 -262144 -1 -1 0
1;
#X obj 480 786 *~;
#X obj 299 152 tgl 15 0 empty empty ch7 -2 -9 0 10 -262144 -1 -1 1
1;
#X obj 685 785 *~;
#X obj 324 152 tgl 15 0 empty empty ch8 -2 -9 0 10 -262144 -1 -1 1
1;
#X obj 907 780 *~;
#X obj 151 152 tgl 15 0 empty empty ch1 -2 -9 0 10 -262144 -1 -1 1
1;
#X obj 272 628 *~;
#X obj 173 152 tgl 15 0 empty empty ch2 -2 -9 0 10 -262144 -1 -1 0
1;
#X obj 476 626 *~;
#X obj 198 153 tgl 15 0 empty empty ch3 -2 -9 0 10 -262144 -1 -1 1
1;
#X obj 691 631 *~;
#X obj 220 151 tgl 15 0 empty empty ch4 -2 -9 0 10 -262144 -1 -1 1
1;
#X obj 910 629 *~;
#N canvas 413 52 828 963 voicebank9 0;
#X obj 60 55 poly 4 1;
#X obj 75 177 gate 4;
#X floatatom 56 115 5 0 0 0 - - -, f 5;
#X obj 55 9 bng 15 250 50 0 empty empty empty 17 7 0 10 -262144 -1
-1;
#X msg 58 33 60 64;
#X obj 183 -64 inlet;
#X obj 393 32 monoSamplePlay galapagos-samples/BASsample1.wav 9;
#X obj 393 202 monoSamplePlay galapagos-samples/BASsample1.wav 9;
#X obj 393 374 monoSamplePlay galapagos-samples/BASsample1.wav 9;
#X obj 394 542 monoSamplePlay galapagos-samples/BASsample1.wav 9;
#X connect 0 0 2 0;
#X connect 0 0 1 0;
#X connect 1 0 6 0;
#X connect 1 1 7 0;
#X connect 1 2 8 0;
#X connect 1 3 9 0;
#X connect 3 0 4 0;
#X connect 3 0 1 1;
#X connect 4 0 0 0;
#X connect 5 0 3 0;
#X restore 568 100 pd voicebank9;
#X connect 0 0 1 0;
#X connect 2 0 3 1;
#X connect 3 0 42 0;
#X connect 4 0 5 0;
#X connect 4 0 0 0;
#X connect 5 0 2 0;
#X connect 5 0 55 0;
#X connect 5 0 59 0;
#X connect 5 0 57 0;
#X connect 5 0 61 0;
#X connect 5 0 67 0;
#X connect 5 0 65 0;
#X connect 5 0 63 0;
#X connect 8 0 69 0;
#X connect 10 0 9 0;
#X connect 11 0 62 0;
#X connect 11 1 13 0;
#X connect 12 0 11 0;
#X connect 13 0 11 0;
#X connect 14 0 11 0;
#X connect 16 0 64 0;
#X connect 16 1 17 0;
#X connect 17 0 16 0;
#X connect 18 0 16 0;
#X connect 19 0 16 0;
#X connect 21 0 66 0;
#X connect 21 1 22 0;
#X connect 22 0 21 0;
#X connect 23 0 21 0;
#X connect 24 0 68 0;
#X connect 24 1 25 0;
#X connect 25 0 24 0;
#X connect 26 0 24 0;
#X connect 29 0 21 0;
#X connect 30 0 24 0;
#X connect 31 0 3 0;
#X connect 31 1 50 0;
#X connect 31 1 53 0;
#X connect 32 0 31 0;
#X connect 33 0 56 0;
#X connect 33 1 34 0;
#X connect 34 0 33 0;
#X connect 35 0 33 0;
#X connect 36 0 58 0;
#X connect 36 1 37 0;
#X connect 37 0 36 0;
#X connect 38 0 36 0;
#X connect 39 0 60 0;
#X connect 39 1 40 0;
#X connect 40 0 39 0;
#X connect 41 0 39 0;
#X connect 46 0 31 0;
#X connect 47 0 33 0;
#X connect 48 0 36 0;
#X connect 49 0 39 0;
#X connect 50 0 31 0;
#X connect 51 0 14 0;
#X connect 51 0 26 0;
#X connect 51 0 23 0;
#X connect 51 0 18 0;
#X connect 51 0 32 0;
#X connect 51 0 41 0;
#X connect 51 0 38 0;
#X connect 51 0 35 0;
#X connect 52 0 12 0;
#X connect 52 0 19 0;
#X connect 52 0 29 0;
#X connect 52 0 30 0;
#X connect 52 0 46 0;
#X connect 52 0 49 0;
#X connect 52 0 48 0;
#X connect 52 0 47 0;
#X connect 53 0 52 0;
#X connect 53 0 54 0;
#X connect 54 0 13 0;
#X connect 54 0 25 0;
#X connect 54 0 22 0;
#X connect 54 0 17 0;
#X connect 54 0 50 0;
#X connect 54 0 40 0;
#X connect 54 0 37 0;
#X connect 54 0 34 0;
#X connect 55 0 56 1;
#X connect 56 0 43 0;
#X connect 57 0 58 1;
#X connect 58 0 44 0;
#X connect 59 0 60 1;
#X connect 60 0 45 0;
#X connect 61 0 62 1;
#X connect 62 0 15 0;
#X connect 63 0 64 1;
#X connect 64 0 20 0;
#X connect 65 0 66 1;
#X connect 66 0 27 0;
#X connect 67 0 68 1;
#X connect 68 0 28 0;
#X coords 0 -1 1 1 253 62 1 103 109;
#X restore 765 62 pd soundplayer;
#N canvas 1193 544 651 542 sendToUnity 0;
#X msg 95 293 disconnect;
#X obj 126 321 mrpeach/packOSC;
#X obj 105 349 mrpeach/udpsend;
#X obj 179 388 tgl 17 0 empty empty connected 22 8 0 8 -1 -262144 -1
1 1;
#X obj 114 377 bng 15 250 50 0 empty empty disconnect 20 6 0 8 -258631
-1 -1;
#X obj 114 395 bng 15 250 50 0 empty empty connect 20 6 0 8 -3924 -1
-1;
#X obj 116 28 inlet;
#X msg 83 263 connect 192.168.1.134 6969;
#X msg 272 264 connect 192.168.1.13 6969;
#X connect 0 0 2 0;
#X connect 1 0 2 0;
#X connect 2 0 3 0;
#X connect 4 0 0 0;
#X connect 5 0 7 0;
#X connect 6 0 1 0;
#X connect 7 0 2 0;
#X connect 8 0 2 0;
#X coords 0 -1 1 1 150 51 1 104 365;
#X restore 34 801 pd sendToUnity;
#N canvas 735 23 450 300 sendToIosono 0;
#X msg 96 38 disconnect;
#X obj 127 66 mrpeach/packOSC;
#X obj 106 94 mrpeach/udpsend;
#X obj 180 133 tgl 17 0 empty empty connected 22 8 0 8 -1 -262144 -1
1 1;
#X obj 115 122 bng 15 250 50 0 empty empty disconnect 20 6 0 8 -258631
-1 -1;
#X obj 115 140 bng 15 250 50 0 empty empty connect 20 6 0 8 -3924 -1
-1;
#X obj 117 -227 inlet;
#X msg 84 8 connect 192.168.1.10 4243;
#X connect 0 0 2 0;
#X connect 1 0 2 0;
#X connect 2 0 3 0;
#X connect 4 0 0 0;
#X connect 5 0 7 0;
#X connect 6 0 1 0;
#X connect 7 0 2 0;
#X coords 0 -1 1 1 162 56 1 103 106;
#X restore 388 844 pd sendToIosono;
#X obj 34 544 positiongeneratorXYZ 2;
#X msg 388 705 sendtyped /pos/DJ fff \$1 \$2 \$3;
#X msg 389 770 sendtyped /pos/EWI fff \$1 \$2 \$3;
#N canvas 530 282 587 375 randomXYZ 1;
#X obj 70 90 metro 500;
#X obj 68 -10 tgl 15 0 empty empty empty 17 7 0 10 -262144 -1 -1 0
1;
#X obj 94 -83 loadbang;
#X obj 70 222 outlet;
#X obj 70 122 random 100;
#X obj 155 124 random 100;
#X obj 248 124 random 100;
#X obj 70 145 / 100;
#X obj 154 145 / 100;
#X obj 250 144 / 100;
#X floatatom 64 13 5 50 2000 0 - - -, f 5;
#X msg 147 11 200;
#X msg 184 11 500;
#X msg 221 11 1000;
#X msg 108 10 50;
#X obj 108 -11 bng 15 250 50 0 empty empty empty 17 7 0 10 -262144
-1 -1;
#X obj 147 -10 bng 15 250 50 0 empty empty empty 17 7 0 10 -262144
-1 -1;
#X obj 184 -11 bng 15 250 50 0 empty empty empty 17 7 0 10 -262144
-1 -1;
#X obj 222 -9 bng 15 250 50 0 empty empty empty 17 7 0 10 -262144 -1
-1;
#X text 65 31 normalized cart XYZ out (0-1);
#X obj 133 226 outlet;
#X obj 201 221 outlet;
#X obj 279 223 outlet;
#X obj 257 -5 bng 41 250 50 0 empty empty empty 17 7 0 10 -262144 -1
-1;
#X connect 0 0 4 0;
#X connect 0 0 5 0;
#X connect 0 0 6 0;
#X connect 0 0 23 0;
#X connect 1 0 0 0;
#X connect 2 0 0 0;
#X connect 2 0 12 0;
#X connect 4 0 7 0;
#X connect 5 0 8 0;
#X connect 6 0 9 0;
#X connect 7 0 3 0;
#X connect 8 0 20 0;
#X connect 9 0 21 0;
#X connect 10 0 0 1;
#X connect 11 0 10 0;
#X connect 12 0 10 0;
#X connect 13 0 10 0;
#X connect 14 0 10 0;
#X connect 15 0 14 0;
#X connect 16 0 11 0;
#X connect 17 0 12 0;
#X connect 18 0 13 0;
#X connect 23 0 22 0;
#X coords 0 -1 1 1 249 70 1 52 -16;
#X restore 387 527 pd randomXYZ 5;
#X msg 37 623 sendtyped /pos/DRUMS fff \$1 \$2 \$3;
#X obj 55 85 mrpeach/routeOSC /sound/BAS /sound/FX /sound/KEYS /sound/SYNTHBAS
/sound/DJ /sound/EWI /sound/DRUMS /sound/EXTRA, f 119;
#X obj 501 127 unpack f f f;
#X obj 738 788 iosono 6;
#N canvas 2680 0 721 622 linearXmover 0;
#N canvas 1027 302 910 562 linearnoise 0;
#X obj 103 231 t b f;
#X obj 125 260 +, f 2;
#X msg 173 317 0;
#X obj 39 285 < 0;
#X floatatom 6 99 5 0 0 0 - - -, f 5;
#X obj 111 81 tgl 15 0 empty empty empty 17 7 0 10 -262144 -1 -1 1
1;
#X obj 42 224 bng 15 250 50 0 empty empty empty 17 7 0 10 -262144 -1
-1;
#X obj 25 326 select 1;
#X obj 94 326 select 1;
#X obj 204 67 metro 50;
#X obj 209 96 loadbang;
#X floatatom 71 80 5 50 500 0 metrospeed - -, f 5;
#X obj 12 438 outlet;
#X obj 45 96 bng 20 250 50 0 empty empty reset 32 11 0 10 -24387 -1
-1;
#X obj 226 10 inlet;
#X obj 92 291 > 1;
#X msg 209 285 1;
#X obj 77 252 f 0.5;
#X msg 73 167 0.58;
#X obj 133 175 - 0.5;
#X obj 134 122 random 100;
#X obj 134 149 / 100;
#X obj 173 207 / 5;
#X floatatom 4 64 5 5 50 1 speed - -, f 5;
#X msg 290 127 25;
#X msg 71 14 50;
#X connect 0 0 6 0;
#X connect 0 1 1 1;
#X connect 1 0 17 1;
#X connect 2 0 17 1;
#X connect 3 0 7 0;
#X connect 4 0 12 0;
#X connect 5 0 9 0;
#X connect 6 0 17 0;
#X connect 7 0 2 0;
#X connect 8 0 16 0;
#X connect 9 0 20 0;
#X connect 10 0 18 0;
#X connect 10 0 9 0;
#X connect 10 0 24 0;
#X connect 10 0 25 0;
#X connect 11 0 9 1;
#X connect 13 0 18 0;
#X connect 14 0 5 0;
#X connect 15 0 8 0;
#X connect 16 0 17 1;
#X connect 17 0 1 0;
#X connect 17 0 3 0;
#X connect 17 0 4 0;
#X connect 17 0 15 0;
#X connect 18 0 17 1;
#X connect 19 0 22 0;
#X connect 20 0 21 0;
#X connect 21 0 19 0;
#X connect 22 0 0 0;
#X connect 23 0 22 1;
#X connect 24 0 23 0;
#X connect 25 0 11 0;
#X coords 0 -1 1 1 166 83 1 -2 39;
#X restore 57 132 pd linearnoise;
#X obj 425 128 tgl 15 0 empty empty metro 17 7 0 10 -262144 -1 -1 1
1;
#X obj 224 19 loadbang;
#X floatatom 248 162 5 0 1 0 Y - -, f 5;
#X floatatom 246 187 5 0 1 0 Z - -, f 5;
#X msg 428 74 1;
#X msg 329 78 0.5;
#X obj 47 245 outlet X;
#X obj 172 248 outlet Z;
#X obj 112 246 outlet Y;
#X text 59 217 normalized cart XYZ out (0-1);
#X connect 0 0 7 0;
#X connect 1 0 0 0;
#X connect 2 0 6 0;
#X connect 2 0 5 0;
#X connect 3 0 9 0;
#X connect 4 0 8 0;
#X connect 5 0 1 0;
#X connect 6 0 3 0;
#X connect 6 0 4 0;
#X coords 0 -1 1 1 238 130 1 51 109;
#X restore 769 611 pd linearXmover;
#X floatatom 987 234 5 1 10 0 Xscale - Xscale, f 5;
#X text 1098 209 phospohtron measures;
#X obj 988 166 loadbang;
#X floatatom 1027 255 5 1 10 0 Yscale - Yscale, f 5;
#X floatatom 1064 235 5 1 10 0 Zscale - Zscale, f 5;
#N canvas 2601 0 450 300 scale2UnityXZY 0;
#X obj 78 153 pack f f f;
#X obj 78 185 outlet;
#X obj 75 54 inlet;
#X obj 131 54 inlet;
#X obj 181 55 inlet;
#X obj 234 53 r uXscale;
#X obj 361 53 r uZscale;
#X obj 298 53 r uYscale;
#X obj 77 81 - 0.5;
#X obj 130 80 - 0.5;
#X obj 231 80 / 2;
#X obj 77 117 *;
#X obj 302 81 / 2;
#X obj 130 115 *;
#X obj 181 115 *;
#X text 151 156 XYZ in XZY out;
#X connect 0 0 1 0;
#X connect 2 0 8 0;
#X connect 3 0 9 0;
#X connect 4 0 14 0;
#X connect 5 0 10 0;
#X connect 6 0 14 1;
#X connect 7 0 12 0;
#X connect 8 0 11 0;
#X connect 9 0 13 0;
#X connect 10 0 11 1;
#X connect 11 0 0 0;
#X connect 12 0 13 1;
#X connect 13 0 0 2;
#X connect 14 0 0 1;
#X restore 387 611 pd scale2UnityXZY;
#X floatatom 1295 229 5 1 10 0 uXscale - uXscale, f 5;
#X msg 1372 199 3;
#X obj 1296 161 loadbang;
#X floatatom 1335 250 5 1 10 0 uYscale - uYscale, f 5;
#X floatatom 1379 230 5 1 10 0 uZscale - uZscale, f 5;
#X text 1406 204 Unity measures;
#X msg 1297 200 10;
#X msg 1335 199 10;
#X obj 35 779 spigot;
#X obj 68 752 tgl 15 0 empty empty empty 17 7 0 10 -262144 -1 -1 0
1;
#X floatatom 1082 728 5 0 0 0 - - -, f 5;
#X obj 1338 826 print;
#X obj 589 356 iosono 3;
#X msg 989 205 10;
#X msg 1026 204 10;
#X msg 1064 204 5;
#X obj 70 158 spigot;
#X obj 100 132 tgl 15 0 empty empty enable_print: -77 8 0 10 -4034
-1 -1 0 1;
#X obj 68 188 print received;
#X msg 227 23 port 6161;
#X msg 227 -2 port 6162;
#X obj 30 280 iosono 1;
#X obj 32 226 scaleUnity2normXYZ;
#X connect 0 0 11 0;
#X connect 1 0 0 0;
#X connect 6 0 10 0;
#X connect 7 0 29 0;
#X connect 9 0 20 0;
#X connect 9 0 33 2;
#X connect 9 1 20 1;
#X connect 9 1 33 3;
#X connect 9 2 20 2;
#X connect 9 2 33 4;
#X connect 11 0 43 0;
#X connect 11 3 12 0;
#X connect 13 0 5 0;
#X connect 14 0 13 2;
#X connect 14 1 13 3;
#X connect 14 2 13 4;
#X connect 17 0 34 0;
#X connect 17 0 35 0;
#X connect 17 0 36 0;
#X connect 20 0 7 0;
#X connect 22 0 25 0;
#X connect 23 0 27 0;
#X connect 23 0 28 0;
#X connect 23 0 22 0;
#X connect 27 0 21 0;
#X connect 28 0 24 0;
#X connect 29 0 4 0;
#X connect 30 0 29 1;
#X connect 31 0 13 14;
#X connect 33 0 5 0;
#X connect 34 0 15 0;
#X connect 35 0 18 0;
#X connect 36 0 19 0;
#X connect 37 0 39 0;
#X connect 38 0 37 1;
#X connect 40 0 1 0;
#X connect 41 0 1 0;
#X connect 43 0 42 2;
#X connect 43 1 42 3;
#X connect 43 2 42 4;
