#N canvas 405 41 1481 1100 10;
#X floatatom 424 314 3 0 0 0 - - -, f 3;
#X floatatom 451 314 3 0 0 0 - - -, f 3;
#X floatatom 478 314 3 0 0 0 - - -, f 3;
#X floatatom 505 314 3 0 0 0 - - -, f 3;
#X floatatom 532 315 5 0 0 0 - - -, f 5;
#X obj 424 288 unpack 0 0 0 0 0;
#X msg 201 100 status;
#X floatatom 303 235 9 0 0 0 - - -, f 9;
#X obj 484 261 tgl 15 0 empty empty empty 17 7 0 10 -4034 -1 -1 0 1
;
#X floatatom 363 256 9 0 0 0 - - -, f 9;
#X text 0 100 get status on right outlet:;
#X text 196 235 bytes received:;
#X text 211 259 total bytes received:;
#X text 381 313 from:;
#X text 303 88 Specify a multicast address (from 224.0.0.0 to 239.255.255.255)
to use multicasting;
#X obj 201 304 spigot;
#X obj 240 284 tgl 15 0 empty empty enable_print: -77 8 0 10 -4034
-1 -1 0 1;
#X obj 201 329 print received;
#X obj 303 202 route received total from multicast;
#X text 286 137 change port to listen on;
#X msg 212 139 port 6161;
#X obj 77 250 mrpeach/unpackOSC;
#X text 82 793 Unity XYZ ≠ iosono XYZ;
#X obj 28 768 ctlout 10 1;
#X obj 110 770 ctlout 11 1;
#X obj 189 772 ctlout 12 1;
#X obj 105 709 unpack f f f;
#X obj 238 577 spigot;
#X obj 277 557 tgl 15 0 empty empty enable_print: -77 8 0 10 -4034
-1 -1 0 1;
#X obj 238 602 print BAS;
#X obj 873 220 readsf~;
#X msg 861 144 open galapagos-stems/BAS.aif;
#X msg 872 170 1;
#X msg 870 194 0;
#X obj 873 247 dac~ 1;
#X obj 1088 218 readsf~;
#X msg 1089 169 1;
#X msg 1088 192 0;
#X msg 1078 143 open galapagos-stems/FX.aif;
#X obj 1088 245 dac~ 2;
#X obj 1302 222 readsf~;
#X msg 1301 169 1;
#X msg 1302 197 0;
#X obj 1521 220 readsf~;
#X msg 1518 169 1;
#X msg 1519 192 0;
#X obj 1302 249 dac~ 3;
#X obj 1521 247 dac~ 4;
#X msg 1290 143 open galapagos-stems/KEYS.aif;
#X msg 1507 142 open galapagos-stems/SYNTHBAS.aif;
#X obj 864 360 readsf~;
#X msg 864 326 0;
#X obj 1091 352 readsf~;
#X msg 1087 298 1;
#X msg 1087 325 0;
#X obj 1298 351 readsf~;
#X msg 1299 298 1;
#X msg 1301 323 0;
#X obj 1519 346 readsf~;
#X msg 1516 297 1;
#X msg 1519 323 0;
#X obj 867 385 dac~ 5;
#X obj 1091 379 dac~ 6;
#X obj 1298 378 dac~ 7;
#X obj 1519 373 dac~ 8;
#X msg 859 273 open galapagos-stems/DJ.aif;
#X msg 1076 272 open galapagos-stems/EWI.aif;
#X msg 1288 272 open galapagos-stems/DRUMS.aif;
#X msg 1505 271 open galapagos-stems/EXTRA.aif;
#X msg 863 300 1;
#X obj 1043 30 bng 15 250 50 0 empty empty empty 17 7 0 10 -262144
-1 -1;
#X obj 995 531 mrpeach/routeOSC /sound/BAS /sound/FX /sound/KEYS /sound/SYNTHBAS
/sound/DJ /sound/EWI /sound/DRUMS /sound/EXTRA, f 119;
#X obj 987 586 unpackXYZtochannel 1;
#X obj 1138 586 unpackXYZtochannel 2;
#X obj 1291 586 unpackXYZtochannel 3;
#X obj 1442 586 unpackXYZtochannel 4;
#X obj 1156 35 bng 15 250 50 0 empty empty empty 17 7 0 10 -262144
-1 -1;
#X obj 799 24 bang;
#X obj 707 -19 bng 15 250 50 0 empty empty empty 17 7 0 10 -262144
-1 -1;
#X obj 944 787 loadbang;
#X msg 1780 505 200;
#X obj 1605 585 unpackXYZtochannel 5;
#X obj 1759 589 unpackXYZtochannel 6;
#X obj 1909 585 unpackXYZtochannel 7;
#X obj 2060 585 unpackXYZtochannel 8;
#X obj 201 170 mrpeach/udpreceive 6161;
#X obj 807 509 vu 15 120 empty empty -1 -8 0 10 -66577 -1 1 0;
#X obj 955 8 pipe 1000;
#X obj 947 436 snapshot~;
#X obj 979 352 tgl 15 0 empty empty empty 17 7 0 10 -262144 -1 -1 0
1;
#X obj 974 394 metro 100;
#X floatatom 957 477 26 0 0 0 - - -, f 26;
#X obj 1159 444 env~ 512;
#X obj 1160 475 dbtorms;
#X floatatom 1159 507 20 0 0 0 - - -, f 20;
#N canvas 850 272 651 519 sendToUnity 0;
#X msg 95 293 disconnect;
#X obj 126 321 mrpeach/packOSC;
#X obj 105 349 mrpeach/udpsend;
#X obj 179 388 tgl 17 0 empty empty connected 22 8 0 8 -1 -262144 -1
0 1;
#X obj 114 377 bng 15 250 50 0 empty empty disconnect 20 6 0 8 -258631
-1 -1;
#X obj 114 395 bng 15 250 50 0 empty empty connect 20 6 0 8 -3924 -1
-1;
#X msg 105 167 sendtyped /size/BAS f \$1;
#X obj 107 134 inlet;
#X msg 101 270 connect 192.168.1.134 6969;
#X connect 0 0 2 0;
#X connect 1 0 2 0;
#X connect 2 0 3 0;
#X connect 4 0 0 0;
#X connect 5 0 8 0;
#X connect 6 0 1 0;
#X connect 7 0 6 0;
#X connect 8 0 2 0;
#X coords 0 -1 1 1 150 51 1 109 372;
#X restore 1131 813 pd sendToUnity;
#X obj 1875 512 tgl 15 0 empty empty send\ OSC\ updates\ at\ metroRate
17 7 0 10 -262144 -1 -1 1 1;
#X msg 1780 480 10;
#X connect 5 0 0 0;
#X connect 5 1 1 0;
#X connect 5 2 2 0;
#X connect 5 3 3 0;
#X connect 5 4 4 0;
#X connect 6 0 85 0;
#X connect 15 0 17 0;
#X connect 16 0 15 1;
#X connect 18 0 7 0;
#X connect 18 1 9 0;
#X connect 18 2 5 0;
#X connect 18 3 8 0;
#X connect 20 0 85 0;
#X connect 21 0 15 0;
#X connect 21 0 71 0;
#X connect 26 0 23 0;
#X connect 26 1 25 0;
#X connect 26 2 24 0;
#X connect 27 0 29 0;
#X connect 28 0 27 1;
#X connect 30 0 34 0;
#X connect 30 1 32 0;
#X connect 31 0 30 0;
#X connect 32 0 30 0;
#X connect 33 0 30 0;
#X connect 35 0 39 0;
#X connect 35 1 36 0;
#X connect 36 0 35 0;
#X connect 37 0 35 0;
#X connect 38 0 35 0;
#X connect 40 0 46 0;
#X connect 40 1 41 0;
#X connect 41 0 40 0;
#X connect 42 0 40 0;
#X connect 43 0 47 0;
#X connect 43 1 44 0;
#X connect 44 0 43 0;
#X connect 45 0 43 0;
#X connect 48 0 40 0;
#X connect 49 0 43 0;
#X connect 50 0 61 0;
#X connect 50 1 69 0;
#X connect 50 1 78 0;
#X connect 51 0 50 0;
#X connect 52 0 62 0;
#X connect 52 0 88 0;
#X connect 52 0 92 0;
#X connect 52 1 53 0;
#X connect 53 0 52 0;
#X connect 54 0 52 0;
#X connect 55 0 63 0;
#X connect 55 1 56 0;
#X connect 56 0 55 0;
#X connect 57 0 55 0;
#X connect 58 0 64 0;
#X connect 58 1 59 0;
#X connect 59 0 58 0;
#X connect 60 0 58 0;
#X connect 65 0 50 0;
#X connect 66 0 52 0;
#X connect 67 0 55 0;
#X connect 68 0 58 0;
#X connect 69 0 50 0;
#X connect 70 0 32 0;
#X connect 70 0 44 0;
#X connect 70 0 41 0;
#X connect 70 0 36 0;
#X connect 70 0 69 0;
#X connect 70 0 59 0;
#X connect 70 0 56 0;
#X connect 70 0 53 0;
#X connect 71 0 72 0;
#X connect 71 1 27 0;
#X connect 71 1 73 0;
#X connect 71 2 74 0;
#X connect 71 3 75 0;
#X connect 71 4 81 0;
#X connect 71 5 82 0;
#X connect 71 6 83 0;
#X connect 71 7 84 0;
#X connect 76 0 33 0;
#X connect 76 0 45 0;
#X connect 76 0 42 0;
#X connect 76 0 37 0;
#X connect 76 0 51 0;
#X connect 76 0 60 0;
#X connect 76 0 57 0;
#X connect 76 0 54 0;
#X connect 77 0 31 0;
#X connect 77 0 38 0;
#X connect 77 0 48 0;
#X connect 77 0 49 0;
#X connect 77 0 65 0;
#X connect 77 0 68 0;
#X connect 77 0 67 0;
#X connect 77 0 66 0;
#X connect 77 0 69 0;
#X connect 78 0 77 0;
#X connect 78 0 87 0;
#X connect 79 0 97 0;
#X connect 79 0 78 0;
#X connect 80 0 72 1;
#X connect 80 0 82 1;
#X connect 80 0 81 1;
#X connect 80 0 84 1;
#X connect 80 0 73 1;
#X connect 80 0 74 1;
#X connect 80 0 75 1;
#X connect 80 0 83 1;
#X connect 85 0 21 0;
#X connect 85 1 18 0;
#X connect 87 0 32 0;
#X connect 87 0 44 0;
#X connect 87 0 41 0;
#X connect 87 0 36 0;
#X connect 87 0 69 0;
#X connect 87 0 59 0;
#X connect 87 0 56 0;
#X connect 87 0 53 0;
#X connect 88 0 86 0;
#X connect 88 0 91 0;
#X connect 89 0 90 0;
#X connect 90 0 88 0;
#X connect 92 0 93 0;
#X connect 93 0 94 0;
#X connect 96 0 72 2;
#X connect 96 0 82 2;
#X connect 96 0 81 2;
#X connect 96 0 84 2;
#X connect 96 0 73 2;
#X connect 96 0 83 2;
#X connect 96 0 75 2;
#X connect 96 0 74 2;
#X connect 97 0 72 1;
#X connect 97 0 73 1;
#X connect 97 0 74 1;
#X connect 97 0 75 1;
