#N canvas 293 116 1413 893 10;
#X floatatom 424 314 3 0 0 0 - - -, f 3;
#X floatatom 451 314 3 0 0 0 - - -, f 3;
#X floatatom 478 314 3 0 0 0 - - -, f 3;
#X floatatom 505 314 3 0 0 0 - - -, f 3;
#X floatatom 532 315 5 0 0 0 - - -, f 5;
#X obj 424 288 unpack 0 0 0 0 0;
#X msg 201 100 status;
#X floatatom 303 235 9 0 0 0 - - -, f 9;
#X obj 484 261 tgl 15 0 empty empty empty 17 7 0 10 -4034 -1 -1 0 1
;
#X floatatom 363 261 9 0 0 0 - - -, f 9;
#X text 0 100 get status on right outlet:;
#X text 196 235 bytes received:;
#X text 211 259 total bytes received:;
#X text 381 313 from:;
#X text 303 88 Specify a multicast address (from 224.0.0.0 to 239.255.255.255)
to use multicasting;
#X obj 201 304 spigot;
#X obj 240 284 tgl 15 0 empty empty enable_print: -77 8 0 10 -4034
-1 -1 0 1;
#X obj 201 329 print received;
#X obj 303 202 route received total from multicast;
#X text 286 137 change port to listen on;
#X msg 212 139 port 6161;
#X obj 854 427 soundfiler;
#X obj 77 250 mrpeach/unpackOSC;
#X obj 854 480 soundfiler;
#X msg 605 865 bang;
#X obj 360 833 ctlout 10 1;
#X obj 535 747 ctlout 11 1;
#X obj 498 785 ctlout 12 1;
#X obj 589 717 bng 15 250 50 0 empty empty empty 17 7 0 10 -262144
-1 -1;
#X obj 617 708 ctlout 10 2;
#X obj 625 735 ctlout 11 2;
#X obj 618 761 ctlout 12 2;
#X obj 473 917 dac~ 1;
#X obj 605 910 dac~ 2;
#X obj 849 365 loadbang;
#X obj 605 833 spigot;
#X obj 653 833 tgl 15 0 empty empty empty 17 7 0 10 -262144 -1 -1 1
1;
#X obj 201 170 mrpeach/udpreceive 6162;
#X obj 852 528 soundfiler;
#X obj 931 480 table Cube;
#X obj 927 427 table Head;
#X msg 784 896 bang;
#X obj 745 766 bng 15 250 50 0 empty empty empty 17 7 0 10 -262144
-1 -1;
#X obj 783 745 ctlout 10 3;
#X obj 779 773 ctlout 11 3;
#X obj 777 794 ctlout 12 3;
#X obj 736 959 dac~ 3;
#X msg 854 457 read -resize gong2.wav Cube;
#X obj 605 887 tabplay~ Cube;
#X obj 479 502 mrpeach/routeOSC /sound/Head /sound/Cube /sound/Ball
/sound/Guit;
#X text 190 793 Unity XYZ ≠ iosono XYZ;
#X obj 136 768 ctlout 10 1;
#X obj 218 770 ctlout 11 1;
#X obj 297 772 ctlout 12 1;
#X obj 213 709 unpack f f f;
#X obj 782 871 spigot;
#X obj 831 871 tgl 15 0 empty empty empty 17 7 0 10 -262144 -1 -1 1
1;
#X obj 853 579 soundfiler;
#X obj 930 579 table Guit;
#X msg 923 840 bang;
#X obj 907 692 bng 15 250 50 0 empty empty empty 17 7 0 10 -262144
-1 -1;
#X obj 923 808 spigot;
#X obj 971 808 tgl 15 0 empty empty empty 17 7 0 10 -262144 -1 -1 1
1;
#X obj 940 690 ctlout 10 4;
#X obj 938 715 ctlout 11 4;
#X obj 936 736 ctlout 12 4;
#X obj 923 885 dac~ 4;
#X obj 923 862 tabplay~ Guit;
#X obj 473 893 tabplay~ Head;
#X obj 458 838 bng 15 250 50 0 empty empty empty 17 7 0 10 -262144
-1 -1;
#X obj 1057 742 loadbang;
#X obj 432 558 unpack f f f;
#X floatatom 507 708 5 0 0 0 - - -, f 5;
#X floatatom 460 704 5 0 0 0 - - -, f 5;
#X floatatom 385 708 5 0 0 0 - - -, f 5;
#X obj 367 613 / 5;
#X obj 365 660 + 1;
#X obj 366 636 * 126;
#X obj 451 616 / 5;
#X obj 449 663 + 1;
#X obj 450 639 * 126;
#X obj 502 664 + 1;
#X obj 503 640 * 126;
#X msg 475 456 1 0 0;
#X obj 367 586 + 0;
#X obj 451 589 + 0;
#X obj 504 590 + 0;
#X obj 504 617 / 4;
#X obj 597 593 sizer;
#X obj 830 620 sizer;
#X obj 906 639 sizer;
#X msg 536 456 6 4 0;
#X msg 854 404 read -resize hello.wav Head;
#X obj 488 839 spigot;
#X obj 536 839 tgl 15 0 empty empty empty 17 7 0 10 -262144 -1 -1 1
1;
#X msg 853 556 read -resize guitar.wav Guit;
#X msg 853 505 read -resize Drat_03.wav Boun;
#X obj 930 528 table Boun;
#X obj 784 918 tabplay~ Boun;
#X connect 5 0 0 0;
#X connect 5 1 1 0;
#X connect 5 2 2 0;
#X connect 5 3 3 0;
#X connect 5 4 4 0;
#X connect 6 0 37 0;
#X connect 15 0 17 0;
#X connect 16 0 15 1;
#X connect 18 0 7 0;
#X connect 18 1 9 0;
#X connect 18 2 5 0;
#X connect 18 3 8 0;
#X connect 20 0 37 0;
#X connect 22 0 15 0;
#X connect 22 0 49 0;
#X connect 24 0 48 0;
#X connect 28 0 35 0;
#X connect 28 0 24 0;
#X connect 34 0 47 0;
#X connect 34 0 92 0;
#X connect 34 0 96 0;
#X connect 34 0 95 0;
#X connect 35 0 24 0;
#X connect 35 0 36 0;
#X connect 36 0 35 1;
#X connect 37 0 22 0;
#X connect 37 1 18 0;
#X connect 41 0 98 0;
#X connect 42 0 55 0;
#X connect 47 0 23 0;
#X connect 48 0 33 0;
#X connect 48 1 36 0;
#X connect 49 0 71 0;
#X connect 49 1 88 0;
#X connect 49 2 89 0;
#X connect 49 3 90 0;
#X connect 54 0 51 0;
#X connect 54 1 53 0;
#X connect 54 2 52 0;
#X connect 55 0 56 0;
#X connect 55 0 41 0;
#X connect 56 0 55 1;
#X connect 59 0 67 0;
#X connect 60 0 61 0;
#X connect 61 0 59 0;
#X connect 61 0 62 0;
#X connect 62 0 61 1;
#X connect 67 0 66 0;
#X connect 67 1 62 0;
#X connect 68 0 32 0;
#X connect 68 1 94 0;
#X connect 69 0 93 0;
#X connect 70 0 62 0;
#X connect 70 0 56 0;
#X connect 70 0 36 0;
#X connect 70 0 94 0;
#X connect 71 0 69 0;
#X connect 71 0 84 0;
#X connect 71 1 85 0;
#X connect 71 2 86 0;
#X connect 72 0 26 0;
#X connect 73 0 27 0;
#X connect 74 0 25 0;
#X connect 74 0 69 0;
#X connect 75 0 77 0;
#X connect 76 0 74 0;
#X connect 77 0 76 0;
#X connect 78 0 80 0;
#X connect 79 0 73 0;
#X connect 80 0 79 0;
#X connect 81 0 72 0;
#X connect 82 0 81 0;
#X connect 83 0 71 0;
#X connect 84 0 75 0;
#X connect 85 0 78 0;
#X connect 86 0 87 0;
#X connect 87 0 82 0;
#X connect 88 0 29 0;
#X connect 88 0 28 0;
#X connect 88 1 31 0;
#X connect 88 2 30 0;
#X connect 89 0 42 0;
#X connect 89 0 43 0;
#X connect 89 1 45 0;
#X connect 89 2 44 0;
#X connect 90 0 60 0;
#X connect 90 0 63 0;
#X connect 90 1 65 0;
#X connect 90 2 64 0;
#X connect 91 0 71 0;
#X connect 92 0 21 0;
#X connect 93 0 94 0;
#X connect 93 0 68 0;
#X connect 94 0 93 1;
#X connect 95 0 57 0;
#X connect 96 0 38 0;
#X connect 98 0 46 0;
#X connect 98 1 56 0;
