#N canvas 456 23 1191 940 10;
#X obj 812 878 cnv 15 1368 596 empty empty dynamic\ sound\ positioners
20 12 1 50 -67617 -66577 0;
#X obj 57 57 mrpeach/unpackOSC;
#X obj 58 30 mrpeach/udpreceive 6161;
#X text 53 14 Receive From Unity;
#N canvas 439 209 1228 841 soundplayer 0;
#X obj 248 151 tgl 15 0 empty empty ch5 -2 -9 0 10 -262144 -1 -1 1
1;
#X obj 252 794 *~;
#X obj 144 42 loadbang;
#X msg 142 71 1;
#X text 109 18 read long files from disk;
#X text 403 192 read short samples to RAM table;
#X obj 346 117 bng 15 250 50 0 empty empty empty 17 7 0 10 -262144
-1 -1;
#X obj 260 599 readsf~;
#X msg 248 523 open galapagos-stems/BAS.aif;
#X msg 266 548 1;
#X msg 257 573 0;
#X obj 260 656 dac~ 1;
#X obj 475 597 readsf~;
#X msg 476 548 1;
#X msg 475 571 0;
#X msg 465 522 open galapagos-stems/FX.aif;
#X obj 475 654 dac~ 2;
#X obj 689 601 readsf~;
#X msg 688 548 1;
#X msg 689 576 0;
#X obj 908 599 readsf~;
#X msg 905 548 1;
#X msg 906 571 0;
#X obj 689 658 dac~ 3;
#X obj 908 656 dac~ 4;
#X msg 677 522 open galapagos-stems/KEYS.aif;
#X msg 894 521 open galapagos-stems/SYNTHBAS.aif;
#X obj 251 769 readsf~;
#X msg 251 735 0;
#X obj 478 761 readsf~;
#X msg 474 709 1;
#X msg 474 734 0;
#X obj 685 760 readsf~;
#X msg 686 707 1;
#X msg 688 732 0;
#X obj 906 755 readsf~;
#X msg 903 706 1;
#X msg 906 732 0;
#X obj 254 817 dac~ 5;
#X obj 478 811 dac~ 6;
#X obj 685 810 dac~ 7;
#X obj 906 805 dac~ 8;
#X msg 246 682 open galapagos-stems/DJ.aif;
#X msg 463 681 open galapagos-stems/EWI.aif;
#X msg 675 681 open galapagos-stems/DRUMS.aif;
#X msg 892 680 open galapagos-stems/EXTRA.aif;
#X msg 248 709 1;
#X obj 107 140 bng 27 250 50 0 empty empty empty 17 7 0 10 -258049
-1 -1;
#X obj 98 187 bang;
#X obj 107 112 bng 27 250 50 0 empty empty empty 17 7 0 10 -4033 -1
-1;
#X obj 131 187 pipe 1000;
#X obj 274 152 tgl 15 0 empty empty ch6 -2 -9 0 10 -262144 -1 -1 1
1;
#X obj 480 786 *~;
#X obj 299 152 tgl 15 0 empty empty ch7 -2 -9 0 10 -262144 -1 -1 1
1;
#X obj 685 785 *~;
#X obj 324 152 tgl 15 0 empty empty ch8 -2 -9 0 10 -262144 -1 -1 1
1;
#X obj 907 780 *~;
#X obj 151 152 tgl 15 0 empty empty ch1 -2 -9 0 10 -262144 -1 -1 1
1;
#X obj 272 628 *~;
#X obj 173 152 tgl 15 0 empty empty ch2 -2 -9 0 10 -262144 -1 -1 1
1;
#X obj 476 626 *~;
#X obj 198 153 tgl 15 0 empty empty ch3 -2 -9 0 10 -262144 -1 -1 1
1;
#X obj 691 631 *~;
#X obj 220 151 tgl 15 0 empty empty ch4 -2 -9 0 10 -262144 -1 -1 1
1;
#X obj 910 629 *~;
#N canvas 413 52 828 963 voicebank9 0;
#X obj 60 55 poly 4 1;
#X floatatom 56 115 5 0 0 0 - - -, f 5;
#X obj 55 9 bng 15 250 50 0 empty empty empty 17 7 0 10 -262144 -1
-1;
#X msg 58 33 60 64;
#X obj 183 -64 inlet;
#X obj 393 32 monoSamplePlay galapagos-samples/BASsample1.wav 9;
#X obj 393 202 monoSamplePlay galapagos-samples/BASsample1.wav 9;
#X obj 393 374 monoSamplePlay galapagos-samples/BASsample1.wav 9;
#X obj 394 542 monoSamplePlay galapagos-samples/BASsample1.wav 9;
#X obj 75 177 cyclone/gate 4;
#X connect 0 0 1 0;
#X connect 0 0 9 0;
#X connect 2 0 3 0;
#X connect 2 0 9 1;
#X connect 3 0 0 0;
#X connect 4 0 2 0;
#X connect 9 0 5 0;
#X connect 9 1 6 0;
#X connect 9 2 7 0;
#X connect 9 3 8 0;
#X restore 594 154 pd voicebank9;
#N canvas 455 64 828 986 drumbank10 0;
#X obj 92 -408 poly 4 1;
#X floatatom 88 -348 5 0 0 0 - - -, f 5;
#X obj 87 -454 bng 15 250 50 0 empty empty empty 17 7 0 10 -262144
-1 -1;
#X msg 90 -430 60 64;
#X obj 215 -527 inlet;
#X obj 425 -431 monoSamplePlay galapagos-samples/DRUMS1.wav 10;
#X obj 425 -261 monoSamplePlay galapagos-samples/DRUMS2.wav 10;
#X obj 424 -89 monoSamplePlay galapagos-samples/DRUMS3.wav 10;
#X obj 426 79 monoSamplePlay galapagos-samples/DRUMS4.wav 10;
#X obj 107 -286 cyclone/gate 4;
#X connect 0 0 1 0;
#X connect 0 0 9 0;
#X connect 2 0 3 0;
#X connect 2 0 9 1;
#X connect 3 0 0 0;
#X connect 4 0 2 0;
#X connect 9 0 5 0;
#X connect 9 1 6 0;
#X connect 9 2 7 0;
#X connect 9 3 8 0;
#X restore 686 154 pd drumbank10;
#N canvas 991 115 771 517 voicebank11 0;
#X obj 60 55 poly 4 1;
#X obj 75 177 gate 4;
#X floatatom 56 115 5 0 0 0 - - -, f 5;
#X obj 55 9 bng 15 250 50 0 empty empty empty 17 7 0 10 -262144 -1
-1;
#X msg 58 33 60 64;
#X obj 183 -64 inlet;
#X obj 328 -31 monoSamplePlay galapagos-samples/BASsample2.wav 2;
#X obj 326 144 monoSamplePlay galapagos-samples/BASsample2.wav 2;
#X obj 325 320 monoSamplePlay galapagos-samples/BASsample2.wav 2;
#X obj 323 495 monoSamplePlay galapagos-samples/BASsample2.wav 2;
#X connect 0 0 2 0;
#X connect 0 0 1 0;
#X connect 1 0 6 0;
#X connect 1 1 7 0;
#X connect 1 2 8 0;
#X connect 1 3 9 0;
#X connect 3 0 4 0;
#X connect 3 0 1 1;
#X connect 4 0 0 0;
#X connect 5 0 3 0;
#X restore 904 156 pd voicebank11;
#X obj 593 79 spigot;
#X obj 592 48 inlet;
#X obj 347 151 tgl 15 0 empty empty ch9 -1 -8 0 10 -262144 -1 -1 1
1;
#X obj 397 116 bng 15 250 50 0 empty empty empty 17 7 0 10 -262144
-1 -1;
#X obj 913 81 spigot;
#X obj 912 50 inlet;
#X obj 398 151 tgl 15 0 empty empty ch11 -5 -9 0 10 -262144 -1 -1 1
1;
#X obj 371 120 bng 15 250 50 0 empty empty empty 17 7 0 10 -262144
-1 -1;
#X obj 689 76 spigot;
#X obj 688 45 inlet;
#X obj 372 151 tgl 15 0 empty empty ch10 -6 -9 0 10 -262144 -1 -1 1
1;
#X obj 380 51 inlet;
#X obj 476 48 inlet;
#X connect 0 0 1 1;
#X connect 1 0 38 0;
#X connect 2 0 3 0;
#X connect 3 0 0 0;
#X connect 3 0 51 0;
#X connect 3 0 55 0;
#X connect 3 0 53 0;
#X connect 3 0 57 0;
#X connect 3 0 63 0;
#X connect 3 0 61 0;
#X connect 3 0 59 0;
#X connect 3 0 70 0;
#X connect 3 0 78 0;
#X connect 3 0 74 0;
#X connect 6 0 65 0;
#X connect 7 0 58 0;
#X connect 7 1 9 0;
#X connect 8 0 7 0;
#X connect 9 0 7 0;
#X connect 10 0 7 0;
#X connect 12 0 60 0;
#X connect 12 1 13 0;
#X connect 13 0 12 0;
#X connect 14 0 12 0;
#X connect 15 0 12 0;
#X connect 17 0 62 0;
#X connect 17 1 18 0;
#X connect 18 0 17 0;
#X connect 19 0 17 0;
#X connect 20 0 64 0;
#X connect 20 1 21 0;
#X connect 21 0 20 0;
#X connect 22 0 20 0;
#X connect 25 0 17 0;
#X connect 26 0 20 0;
#X connect 27 0 1 0;
#X connect 27 1 46 0;
#X connect 27 1 49 0;
#X connect 28 0 27 0;
#X connect 29 0 52 0;
#X connect 29 1 30 0;
#X connect 30 0 29 0;
#X connect 31 0 29 0;
#X connect 32 0 54 0;
#X connect 32 1 33 0;
#X connect 33 0 32 0;
#X connect 34 0 32 0;
#X connect 35 0 56 0;
#X connect 35 1 36 0;
#X connect 36 0 35 0;
#X connect 37 0 35 0;
#X connect 42 0 27 0;
#X connect 43 0 29 0;
#X connect 44 0 32 0;
#X connect 45 0 35 0;
#X connect 46 0 27 0;
#X connect 47 0 10 0;
#X connect 47 0 22 0;
#X connect 47 0 19 0;
#X connect 47 0 14 0;
#X connect 47 0 28 0;
#X connect 47 0 37 0;
#X connect 47 0 34 0;
#X connect 47 0 31 0;
#X connect 48 0 8 0;
#X connect 48 0 15 0;
#X connect 48 0 25 0;
#X connect 48 0 26 0;
#X connect 48 0 42 0;
#X connect 48 0 45 0;
#X connect 48 0 44 0;
#X connect 48 0 43 0;
#X connect 49 0 48 0;
#X connect 49 0 50 0;
#X connect 50 0 9 0;
#X connect 50 0 21 0;
#X connect 50 0 18 0;
#X connect 50 0 13 0;
#X connect 50 0 46 0;
#X connect 50 0 36 0;
#X connect 50 0 33 0;
#X connect 50 0 30 0;
#X connect 51 0 52 1;
#X connect 52 0 39 0;
#X connect 53 0 54 1;
#X connect 54 0 40 0;
#X connect 55 0 56 1;
#X connect 56 0 41 0;
#X connect 57 0 58 1;
#X connect 58 0 11 0;
#X connect 59 0 60 1;
#X connect 60 0 16 0;
#X connect 61 0 62 1;
#X connect 62 0 23 0;
#X connect 63 0 64 1;
#X connect 64 0 24 0;
#X connect 68 0 6 0;
#X connect 69 0 68 0;
#X connect 70 0 68 1;
#X connect 71 0 67 0;
#X connect 72 0 71 0;
#X connect 73 0 72 0;
#X connect 74 0 72 1;
#X connect 75 0 66 0;
#X connect 76 0 75 0;
#X connect 77 0 76 0;
#X connect 78 0 76 1;
#X connect 79 0 49 0;
#X connect 80 0 47 0;
#X coords 0 -1 1 1 317 64 1 103 109;
#X restore 336 6 pd soundplayer;
#N canvas 697 494 651 565 sendToUnity 0;
#X msg 95 293 disconnect;
#X obj 126 321 mrpeach/packOSC;
#X obj 105 349 mrpeach/udpsend;
#X obj 179 388 tgl 17 0 empty empty connected 22 8 0 8 -1 -262144 -1
0 1;
#X obj 114 377 bng 15 250 50 0 empty empty disconnect 20 6 0 8 -258631
-1 -1;
#X obj 114 395 bng 15 250 50 0 empty empty connect 20 6 0 8 -3924 -1
-1;
#X obj 154 60 inlet;
#X msg 311 263 connect 192.168.1.13 6969;
#X obj 257 57 inlet, f 7;
#X obj 264 88 select 1;
#X msg 83 263 connect 127.0.0.1 6969;
#X connect 0 0 2 0;
#X connect 1 0 2 0;
#X connect 2 0 3 0;
#X connect 4 0 0 0;
#X connect 5 0 10 0;
#X connect 6 0 1 0;
#X connect 7 0 2 0;
#X connect 8 0 9 0;
#X connect 9 0 5 0;
#X connect 9 1 4 0;
#X connect 10 0 2 0;
#X coords 0 -1 1 1 150 51 1 104 365;
#X restore 79 1133 pd sendToUnity;
#N canvas 735 23 450 300 sendToIosono 0;
#X msg 96 38 disconnect;
#X obj 127 66 mrpeach/packOSC;
#X obj 106 94 mrpeach/udpsend;
#X obj 180 133 tgl 17 0 empty empty connected 22 8 0 8 -1 -262144 -1
0 1;
#X obj 115 122 bng 15 250 50 0 empty empty disconnect 20 6 0 8 -258631
-1 -1;
#X obj 115 140 bng 15 250 50 0 empty empty connect 20 6 0 8 -3924 -1
-1;
#X obj 93 -62 inlet, f 7;
#X msg 84 8 connect 192.168.1.10 4243;
#X obj 169 -59 inlet, f 7;
#X obj 176 -28 select 1;
#X connect 0 0 2 0;
#X connect 1 0 2 0;
#X connect 2 0 3 0;
#X connect 4 0 0 0;
#X connect 5 0 7 0;
#X connect 6 0 1 0;
#X connect 7 0 2 0;
#X connect 8 0 9 0;
#X connect 9 0 5 0;
#X connect 9 1 4 0;
#X coords 0 -1 1 1 162 56 1 103 106;
#X restore 77 1003 pd sendToIosono;
#X obj 1443 1291 positiongeneratorXYZ 2;
#N canvas 530 282 587 375 randomXYZ 0;
#X obj 70 90 metro 500;
#X obj 66 -12 tgl 15 0 empty empty empty 17 7 0 10 -262144 -1 -1 0
1;
#X obj 147 -66 loadbang;
#X obj 70 222 outlet;
#X obj 70 122 random 100;
#X obj 155 124 random 100;
#X obj 248 124 random 100;
#X obj 70 145 / 100;
#X obj 154 145 / 100;
#X obj 250 144 / 100;
#X floatatom 66 12 5 50 2000 0 - - -, f 5;
#X msg 147 11 200;
#X msg 184 11 500;
#X msg 221 11 1000;
#X msg 108 10 50;
#X obj 108 -11 bng 15 250 50 0 empty empty empty 17 7 0 10 -262144
-1 -1;
#X obj 147 -10 bng 15 250 50 0 empty empty empty 17 7 0 10 -262144
-1 -1;
#X obj 184 -11 bng 15 250 50 0 empty empty empty 17 7 0 10 -262144
-1 -1;
#X obj 222 -9 bng 15 250 50 0 empty empty empty 17 7 0 10 -262144 -1
-1;
#X text 65 31 normalized cart XYZ out (0-1);
#X obj 133 226 outlet;
#X obj 201 221 outlet;
#X obj 279 223 outlet;
#X obj 257 -5 bng 41 250 50 0 empty empty empty 17 7 0 10 -262144 -1
-1;
#X obj 35 -84 inlet;
#X obj 83 -82 inlet;
#X connect 0 0 4 0;
#X connect 0 0 5 0;
#X connect 0 0 6 0;
#X connect 0 0 23 0;
#X connect 1 0 0 0;
#X connect 2 0 0 0;
#X connect 2 0 12 0;
#X connect 4 0 7 0;
#X connect 5 0 8 0;
#X connect 6 0 9 0;
#X connect 7 0 3 0;
#X connect 8 0 20 0;
#X connect 9 0 21 0;
#X connect 10 0 0 1;
#X connect 11 0 10 0;
#X connect 12 0 10 0;
#X connect 13 0 10 0;
#X connect 14 0 10 0;
#X connect 15 0 14 0;
#X connect 16 0 11 0;
#X connect 17 0 12 0;
#X connect 18 0 13 0;
#X connect 23 0 22 0;
#X connect 24 0 1 0;
#X connect 25 0 10 0;
#X coords 0 -1 1 1 251 84 1 54 -31;
#X restore 893 970 pd randomXYZ 5;
#X msg 1432 1400 sendtyped /pos/DRUMS fff \$1 \$2 \$3;
#X obj 55 85 mrpeach/routeOSC /sound/BAS /sound/FX /sound/KEYS /sound/SYNTHBAS
/sound/DJ /sound/EWI /sound/DRUMS /sound/EXTRA, f 119;
#N canvas 2680 22 721 622 linearXmover 0;
#N canvas 1027 302 910 562 linearnoise 0;
#X obj 103 231 t b f;
#X obj 125 260 +, f 2;
#X msg 173 317 0;
#X obj 39 285 < 0;
#X floatatom 6 99 5 0 0 0 - - -, f 5;
#X obj 111 81 tgl 15 0 empty empty empty 17 7 0 10 -262144 -1 -1 1
1;
#X obj 42 224 bng 15 250 50 0 empty empty empty 17 7 0 10 -262144 -1
-1;
#X obj 25 326 select 1;
#X obj 94 326 select 1;
#X obj 204 67 metro 50;
#X obj 209 96 loadbang;
#X floatatom 71 80 5 50 500 0 metrospeed - -, f 5;
#X obj 12 438 outlet;
#X obj 45 96 bng 20 250 50 0 empty empty reset 32 11 0 10 -24387 -1
-1;
#X obj 226 10 inlet;
#X obj 92 291 > 1;
#X msg 209 285 1;
#X obj 77 252 f 0.5;
#X msg 73 167 0.58;
#X obj 133 175 - 0.5;
#X obj 134 122 random 100;
#X obj 134 149 / 100;
#X obj 173 207 / 5;
#X floatatom 4 64 5 5 50 1 speed - -, f 5;
#X msg 290 127 25;
#X msg 71 14 50;
#X connect 0 0 6 0;
#X connect 0 1 1 1;
#X connect 1 0 17 1;
#X connect 2 0 17 1;
#X connect 3 0 7 0;
#X connect 4 0 12 0;
#X connect 5 0 9 0;
#X connect 6 0 17 0;
#X connect 7 0 2 0;
#X connect 8 0 16 0;
#X connect 9 0 20 0;
#X connect 10 0 18 0;
#X connect 10 0 9 0;
#X connect 10 0 24 0;
#X connect 10 0 25 0;
#X connect 11 0 9 1;
#X connect 13 0 18 0;
#X connect 14 0 5 0;
#X connect 15 0 8 0;
#X connect 16 0 17 1;
#X connect 17 0 1 0;
#X connect 17 0 3 0;
#X connect 17 0 4 0;
#X connect 17 0 15 0;
#X connect 18 0 17 1;
#X connect 19 0 22 0;
#X connect 20 0 21 0;
#X connect 21 0 19 0;
#X connect 22 0 0 0;
#X connect 23 0 22 1;
#X connect 24 0 23 0;
#X connect 25 0 11 0;
#X coords 0 -1 1 1 166 83 1 -2 39;
#X restore 57 132 pd linearnoise;
#X obj 425 128 tgl 15 0 empty empty metro 17 7 0 10 -262144 -1 -1 1
1;
#X obj 224 19 loadbang;
#X floatatom 248 162 5 0 1 0 Y - -, f 5;
#X floatatom 246 187 5 0 1 0 Z - -, f 5;
#X msg 428 74 1;
#X msg 329 78 0.5;
#X obj 47 245 outlet X;
#X obj 172 248 outlet Z;
#X obj 112 246 outlet Y;
#X text 59 217 normalized cart XYZ out (0-1);
#X connect 0 0 7 0;
#X connect 1 0 0 0;
#X connect 2 0 6 0;
#X connect 2 0 5 0;
#X connect 3 0 9 0;
#X connect 4 0 8 0;
#X connect 5 0 1 0;
#X connect 6 0 3 0;
#X connect 6 0 4 0;
#X coords 0 -1 1 1 238 130 1 51 109;
#X restore 1531 938 pd linearXmover;
#X floatatom 1293 102 5 1 10 0 Xscale - Xscale, f 5;
#X text 1404 77 phospohtron measures;
#X obj 1294 36 loadbang;
#X floatatom 1333 123 5 1 10 0 Yscale - Yscale, f 5;
#X floatatom 1370 103 5 1 10 0 Zscale - Zscale, f 5;
#N canvas 2601 22 450 300 scale2UnityXZY 0;
#X obj 78 153 pack f f f;
#X obj 78 185 outlet;
#X obj 75 54 inlet;
#X obj 131 54 inlet;
#X obj 181 55 inlet;
#X obj 234 53 r uXscale;
#X obj 361 53 r uZscale;
#X obj 298 53 r uYscale;
#X obj 77 81 - 0.5;
#X obj 130 80 - 0.5;
#X obj 231 80 / 2;
#X obj 77 117 *;
#X obj 302 81 / 2;
#X obj 130 115 *;
#X obj 181 115 *;
#X text 151 156 XYZ in XZY out;
#X connect 0 0 1 0;
#X connect 2 0 8 0;
#X connect 3 0 9 0;
#X connect 4 0 14 0;
#X connect 5 0 10 0;
#X connect 6 0 14 1;
#X connect 7 0 12 0;
#X connect 8 0 11 0;
#X connect 9 0 13 0;
#X connect 10 0 11 1;
#X connect 11 0 0 0;
#X connect 12 0 13 1;
#X connect 13 0 0 2;
#X connect 14 0 0 1;
#X restore 895 1063 pd scale2UnityXZY;
#X floatatom 1295 229 5 1 10 0 uXscale - uXscale, f 5;
#X msg 1372 199 3;
#X obj 1296 161 loadbang;
#X floatatom 1335 248 5 1 10 0 uYscale - uYscale, f 5;
#X floatatom 1379 230 5 1 10 0 uZscale - uZscale, f 5;
#X text 1406 204 Unity measures;
#X msg 1297 200 10;
#X msg 1335 199 10;
#X msg 1295 73 10;
#X msg 1332 72 10;
#X msg 1370 72 5;
#X obj 122 252 spigot;
#X obj 147 223 tgl 15 0 empty empty enable_print: -77 8 0 10 -4034
-1 -1 0 1;
#X obj 120 282 print received;
#X obj 28 451 iosono 1;
#X obj 29 387 scaleUnity2normXYZ;
#X msg 896 1090 sendtyped /pos/DRUMS fff \$1 \$2 \$3;
#X obj 893 1122 iosono 10;
#N canvas 2601 22 450 300 scale2UnityXZY 0;
#X obj 78 153 pack f f f;
#X obj 78 185 outlet;
#X obj 75 54 inlet;
#X obj 131 54 inlet;
#X obj 181 55 inlet;
#X obj 234 53 r uXscale;
#X obj 361 53 r uZscale;
#X obj 298 53 r uYscale;
#X obj 77 81 - 0.5;
#X obj 130 80 - 0.5;
#X obj 231 80 / 2;
#X obj 77 117 *;
#X obj 302 81 / 2;
#X obj 130 115 *;
#X obj 181 115 *;
#X text 151 156 XYZ in XZY out;
#X connect 0 0 1 0;
#X connect 2 0 8 0;
#X connect 3 0 9 0;
#X connect 4 0 14 0;
#X connect 5 0 10 0;
#X connect 6 0 14 1;
#X connect 7 0 12 0;
#X connect 8 0 11 0;
#X connect 9 0 13 0;
#X connect 10 0 11 1;
#X connect 11 0 0 0;
#X connect 12 0 13 1;
#X connect 13 0 0 2;
#X connect 14 0 0 1;
#X restore 1528 1078 pd scale2UnityXZY;
#X obj 1788 1052 metro 10000;
#X obj 1788 1022 tgl 15 0 empty empty empty 17 7 0 10 -262144 -1 -1
0 1;
#X obj 131 143 mrpeach/routeOSC /control/multitrack/state /control/randomdrums/state
/control/randomdrums/speed, f 119;
#X text 189 172 send /control/multitrack/state 1 to start \, 0 to stop
;
#X obj 132 171 select 1;
#X text 376 191 send /controldrums/state 1 to start \, 0 to stop;
#X text 616 161 send /control/randomdrums/speed/ value between 50 and
2000 DONT GO LOWER;
#X obj 1530 1129 iosono 9;
#X text 1486 1370 DONT USE THIS ONE FOR NOW;
#X obj 1412 -4 bng 53 250 50 0 empty empty RESET 13 58 1 10 -260097
-1 -1;
#X obj 580 392 scaleUnity2normXYZ;
#X obj 579 456 iosono 2;
#X obj 1127 389 scaleUnity2normXYZ;
#X obj 1660 389 scaleUnity2normXYZ;
#X obj 1126 453 iosono 3;
#X obj 1659 453 iosono 4;
#X obj 586 572 scaleUnity2normXYZ;
#X obj 1117 585 scaleUnity2normXYZ;
#X obj 1649 580 scaleUnity2normXYZ;
#X obj 585 636 iosono 6;
#X obj 34 631 iosono 5;
#X obj 31 573 scaleUnity2normXYZ;
#X obj 1117 637 iosono 7;
#X obj 1650 637 iosono 8;
#X msg 1472 263 1;
#X msg 1529 1105 sendtyped /pos/BAS fff \$1 \$2 \$3;
#X msg 1629 233 DSP on \;;
#X floatatom 386 383 3 0 0 0 - - -, f 3;
#X floatatom 413 383 3 0 0 0 - - -, f 3;
#X floatatom 440 383 3 0 0 0 - - -, f 3;
#X floatatom 467 383 3 0 0 0 - - -, f 3;
#X floatatom 494 384 5 0 0 0 - - -, f 5;
#X obj 386 357 unpack 0 0 0 0 0;
#X floatatom 265 304 9 0 0 0 - - -, f 9;
#X obj 446 330 tgl 15 0 empty empty empty 17 7 0 10 -4034 -1 -1 0 1
;
#X floatatom 325 330 9 0 0 0 - - -, f 9;
#X text 173 328 total bytes received:;
#X text 343 382 from:;
#X obj 265 271 route received total from multicast;
#X connect 1 0 10 0;
#X connect 1 0 39 0;
#X connect 2 0 1 0;
#X connect 2 1 75 0;
#X connect 7 0 9 0;
#X connect 8 0 17 0;
#X connect 8 0 35 2;
#X connect 8 1 17 1;
#X connect 8 1 35 3;
#X connect 8 2 17 2;
#X connect 8 2 35 4;
#X connect 8 3 4 3;
#X connect 10 0 33 0;
#X connect 10 1 47 0;
#X connect 10 2 49 0;
#X connect 10 3 50 0;
#X connect 10 4 58 0;
#X connect 10 5 53 0;
#X connect 10 6 29 0;
#X connect 10 6 54 0;
#X connect 10 7 55 0;
#X connect 11 0 44 2;
#X connect 11 1 44 3;
#X connect 11 2 44 4;
#X connect 14 0 26 0;
#X connect 14 0 27 0;
#X connect 14 0 28 0;
#X connect 17 0 34 0;
#X connect 19 0 22 0;
#X connect 20 0 24 0;
#X connect 20 0 25 0;
#X connect 20 0 19 0;
#X connect 24 0 18 0;
#X connect 25 0 21 0;
#X connect 26 0 12 0;
#X connect 27 0 15 0;
#X connect 28 0 16 0;
#X connect 29 0 31 0;
#X connect 30 0 29 1;
#X connect 32 0 6 0;
#X connect 33 0 32 2;
#X connect 33 1 32 3;
#X connect 33 2 32 4;
#X connect 34 0 5 0;
#X connect 35 0 6 0;
#X connect 36 0 62 0;
#X connect 37 0 4 2;
#X connect 38 0 37 0;
#X connect 39 0 41 0;
#X connect 39 1 8 0;
#X connect 39 2 8 1;
#X connect 41 0 4 0;
#X connect 41 1 4 1;
#X connect 44 0 6 0;
#X connect 46 0 26 0;
#X connect 46 0 27 0;
#X connect 46 0 28 0;
#X connect 46 0 24 0;
#X connect 46 0 25 0;
#X connect 46 0 19 0;
#X connect 46 0 61 0;
#X connect 47 0 48 2;
#X connect 47 1 48 3;
#X connect 47 2 48 4;
#X connect 48 0 6 0;
#X connect 49 0 51 2;
#X connect 49 1 51 3;
#X connect 49 2 51 4;
#X connect 50 0 52 2;
#X connect 50 1 52 3;
#X connect 50 2 52 4;
#X connect 51 0 6 0;
#X connect 52 0 6 0;
#X connect 53 0 56 2;
#X connect 53 1 56 3;
#X connect 53 2 56 4;
#X connect 54 0 59 2;
#X connect 54 1 59 3;
#X connect 54 2 59 4;
#X connect 55 0 60 2;
#X connect 55 1 60 3;
#X connect 55 2 60 4;
#X connect 56 0 6 0;
#X connect 57 0 6 0;
#X connect 58 0 57 2;
#X connect 58 1 57 3;
#X connect 58 2 57 4;
#X connect 59 0 6 0;
#X connect 60 0 6 0;
#X connect 61 0 6 1;
#X connect 61 0 4 0;
#X connect 61 0 5 1;
#X connect 69 0 64 0;
#X connect 69 1 65 0;
#X connect 69 2 66 0;
#X connect 69 3 67 0;
#X connect 69 4 68 0;
#X connect 75 0 70 0;
#X connect 75 1 72 0;
#X connect 75 2 69 0;
#X connect 75 3 71 0;
