#N canvas 899 213 1021 728 10;
#X obj 219 108 cnv 15 114 96 empty empty empty 20 12 0 14 -138681 -66577
0;
#X obj 112 359 pack f f f f f f f f f f f f;
#X msg 110 393 sendtyped /iosono/renderer/version/src iiffffffiifi
;
#N canvas 2002 22 968 866 car2pol 0;
#X obj 53 36 inlet;
#X obj 57 237 sqrt;
#X obj 47 99 pow 2;
#X obj 97 98 pow 2;
#X obj 145 97 pow 2;
#X obj 97 37 inlet;
#X obj 143 39 inlet;
#X obj 33 180 +;
#X obj 56 210 +;
#X obj 97 124 t b f;
#X obj 148 125 t b f;
#X obj 52 412 outlet;
#X msg 288 17 4;
#X msg 328 16 5;
#X floatatom 66 287 5 0 0 0 - - -, f 5;
#X floatatom 201 240 5 0 0 0 - - -, f 5;
#X obj 222 175 /, f 1;
#X obj 200 264 * 57.2958;
#X floatatom 200 286 5 0 0 0 - - -, f 5;
#X obj 168 167 f;
#X obj 59 126 t b f;
#X obj 201 208 atan;
#X msg 249 17 3;
#X obj 308 178 /;
#X obj 284 128 sqrt;
#X obj 330 128 t b f;
#X text 28 354 http://keisan.casio.com/exec/system/1359533867;
#X floatatom 313 244 5 0 0 0 - - -, f 5;
#X obj 312 268 * 57.2958;
#X floatatom 312 290 5 0 0 0 - - -, f 5;
#X obj 313 212 atan;
#X text 52 430 Radius;
#X obj 128 411 outlet;
#X text 128 429 theta;
#X obj 197 412 outlet;
#X text 197 430 phi;
#X connect 0 0 2 0;
#X connect 0 0 16 1;
#X connect 1 0 11 0;
#X connect 1 0 14 0;
#X connect 2 0 7 0;
#X connect 2 0 20 0;
#X connect 3 0 9 0;
#X connect 4 0 10 0;
#X connect 5 0 3 0;
#X connect 5 0 16 0;
#X connect 6 0 4 0;
#X connect 6 0 25 0;
#X connect 7 0 8 0;
#X connect 7 0 24 0;
#X connect 8 0 1 0;
#X connect 9 0 7 0;
#X connect 9 1 7 1;
#X connect 9 1 19 1;
#X connect 10 0 7 0;
#X connect 10 1 8 1;
#X connect 12 0 3 0;
#X connect 12 0 16 0;
#X connect 13 0 4 0;
#X connect 13 0 25 0;
#X connect 15 0 17 0;
#X connect 16 0 21 0;
#X connect 17 0 18 0;
#X connect 18 0 32 0;
#X connect 20 0 19 0;
#X connect 21 0 15 0;
#X connect 22 0 2 0;
#X connect 22 0 16 1;
#X connect 23 0 30 0;
#X connect 24 0 23 0;
#X connect 25 0 2 0;
#X connect 25 0 3 0;
#X connect 25 1 23 1;
#X connect 27 0 28 0;
#X connect 28 0 29 0;
#X connect 29 0 34 0;
#X connect 30 0 27 0;
#X restore 152 277 pd car2pol;
#X obj 354 125 vsl 10 64 0 1 0 1 empty empty Vol -3 -10 0 10 -262144
-1 -1 6300 1;
#X obj 384 125 vsl 10 64 0 1 0 1 empty empty LFE -3 -10 0 10 -262144
-1 -1 0 1;
#X obj 422 126 vsl 10 64 0 1 0 1 empty empty delay -7 -12 0 10 -262144
-1 -1 0 1;
#X floatatom 447 143 5 0 5 2 scaling - -, f 5;
#X floatatom 447 172 5 0 5 2 screen - -, f 5;
#X floatatom 516 153 5 0 5 2 trait - -, f 5;
#X obj 496 127 vsl 10 64 0 1 0 1 empty empty spread -7 -12 0 10 -262144
-1 -1 0 1;
#X floatatom 120 190 5 0 64 2 dante_channel - -, f 5;
#X obj 98 208 + 4;
#X obj 120 117 vradio 15 0 1 2 empty empty empty 0 -8 0 10 -262144
-1 -1 0;
#X text 138 131 plane source;
#X text 139 115 point source;
#X floatatom 99 238 5 0 0 0 - - -, f 5;
#X obj 261 122 vsl 10 64 0 1 0 1 empty empty y 12 -9 0 10 -262144 -1
-1 5950 1;
#X obj 231 151 hsl 64 10 0 1 0 1 empty empty x -9 2 0 10 -262144 -1
-1 5950 1;
#X obj 307 124 vsl 10 64 0 1 0 1 empty empty z 6 -12 0 10 -262144 -1
-1 4200 1;
#X obj 120 156 tgl 15 0 empty empty empty 17 7 0 10 -262144 -1 -1 0
1;
#X text 140 154 send data;
#X obj 18 192 metro 50;
#X floatatom 598 124 5 0 10 0 Xscale Xscale -, f 5;
#X floatatom 598 153 5 0 5 0 Yscale Yscale -, f 5;
#X floatatom 598 181 5 0 5 0 Zscale Zscale -, f 5;
#X obj 110 427 outlet;
#X obj 682 106 loadbang;
#X obj 158 235 *;
#X obj 186 234 *;
#X obj 214 234 *;
#X obj 159 60 f \$1;
#X obj 84 7 inlet;
#X text 79 23 channel;
#X msg 197 59 1;
#X obj 133 7 inlet;
#X text 130 23 type;
#X obj 176 8 inlet;
#X obj 213 8 inlet;
#X obj 253 8 inlet;
#X obj 295 8 inlet;
#X text 174 24 norm X;
#X text 213 24 norm Y;
#X text 251 24 norm Z;
#X text 295 24 Volume;
#X obj 376 8 inlet;
#X text 376 24 delay;
#X obj 336 9 inlet;
#X text 336 25 LFE;
#X obj 498 10 inlet;
#X text 498 26 spread;
#X obj 413 9 inlet;
#X text 413 25 scaling;
#X obj 458 9 inlet;
#X text 458 25 screen;
#X obj 538 10 inlet;
#X text 538 26 trait;
#X obj 620 9 inlet;
#X obj 580 10 inlet;
#X obj 743 9 inlet;
#X obj 657 10 inlet;
#X obj 702 10 inlet;
#X text 580 26 Radius;
#X text 620 25 theta;
#X text 657 26 Phi;
#X text 702 26 rawX;
#X text 742 27 rawY;
#X text 782 27 rawZ;
#X obj 782 9 inlet;
#X obj 705 245 / 2;
#X obj 691 291 /;
#X obj 691 268 +;
#X obj 737 245 / 2;
#X obj 724 291 /;
#X obj 724 268 +;
#X obj 757 292 /;
#X floatatom 679 335 5 0 0 0 - - -, f 5;
#X connect 1 0 2 0;
#X connect 2 0 26 0;
#X connect 3 0 1 2;
#X connect 3 1 1 3;
#X connect 3 2 1 4;
#X connect 4 0 1 5;
#X connect 5 0 1 6;
#X connect 6 0 1 7;
#X connect 7 0 1 8;
#X connect 8 0 1 9;
#X connect 9 0 1 11;
#X connect 10 0 1 10;
#X connect 11 0 1 0;
#X connect 12 0 16 0;
#X connect 13 0 12 0;
#X connect 16 0 1 1;
#X connect 17 0 29 0;
#X connect 18 0 28 0;
#X connect 19 0 30 0;
#X connect 20 0 22 0;
#X connect 22 0 1 0;
#X connect 23 0 28 1;
#X connect 23 0 70 1;
#X connect 23 0 69 0;
#X connect 24 0 29 1;
#X connect 24 0 73 1;
#X connect 24 0 72 0;
#X connect 25 0 30 1;
#X connect 25 0 75 1;
#X connect 27 0 31 0;
#X connect 27 0 9 0;
#X connect 27 0 10 0;
#X connect 27 0 7 0;
#X connect 27 0 8 0;
#X connect 27 0 6 0;
#X connect 27 0 5 0;
#X connect 27 0 4 0;
#X connect 27 0 19 0;
#X connect 27 0 17 0;
#X connect 27 0 18 0;
#X connect 27 0 13 0;
#X connect 27 0 11 0;
#X connect 28 0 3 0;
#X connect 29 0 3 1;
#X connect 30 0 3 2;
#X connect 31 0 11 0;
#X connect 32 0 11 0;
#X connect 34 0 20 0;
#X connect 35 0 13 0;
#X connect 37 0 18 0;
#X connect 38 0 17 0;
#X connect 39 0 19 0;
#X connect 40 0 4 0;
#X connect 45 0 6 0;
#X connect 47 0 5 0;
#X connect 49 0 10 0;
#X connect 51 0 7 0;
#X connect 53 0 8 0;
#X connect 55 0 9 0;
#X connect 57 0 1 3;
#X connect 58 0 1 2;
#X connect 59 0 74 0;
#X connect 60 0 1 4;
#X connect 61 0 71 0;
#X connect 68 0 75 0;
#X connect 69 0 71 1;
#X connect 70 0 18 0;
#X connect 70 0 76 0;
#X connect 71 0 70 0;
#X connect 72 0 74 1;
#X connect 73 0 17 0;
#X connect 74 0 73 0;
#X connect 75 0 19 0;
#X coords 0 -1 1 1 519 111 1 114 97;
