#N canvas 429 243 1115 737 10;
#X obj 92 54 inlet;
#X obj 242 333 spigot;
#X obj 291 334 tgl 15 0 empty empty empty 17 7 0 10 -262144 -1 -1 0
1;
#X obj 340 99 bng 15 250 50 0 empty empty empty 17 7 0 10 -262144 -1
-1;
#X text 89 36 trigger;
#X text 122 8 arguments: Filename Channel;
#X obj 242 360 tabplay~ \$0-array;
#N canvas 0 22 450 300 (subpatch) 0;
#X array \$0-array 1.00147e+006 float 0 black black;
#X coords 0 1 1.00147e+006 -1 160 100 1;
#X restore 371 85 graph;
#X obj 639 397 soundfiler;
#X obj 537 87 vu 15 120 empty empty -1 -8 0 10 -66577 -1 0 0;
#X obj 341 187 tgl 21 0 empty empty on/mute 25 11 0 10 -262144 -1 -1
1 1;
#X symbolatom 639 346 39 0 0 0 - - -, f 39;
#X obj 640 318 symbol \$1;
#X msg 639 371 read -resize \$1 \$0-array;
#X obj 640 292 loadbang;
#X obj 538 23 env~ 512;
#X obj 599 57 dbtorms;
#X msg 733 279 1;
#X floatatom 679 184 5 0 0 0 - - -, f 5;
#X floatatom 658 57 5 0 0 0 - - -, f 5;
#X obj 682 110 - 100;
#X msg 117 189;
#X obj 121 236 \$2;
#X floatatom 117 296 5 0 0 0 - - -, f 5;
#X obj 101 214 bng 15 250 50 0 empty empty empty 17 7 0 10 -262144
-1 -1;
#X obj 215 53 inlet;
#X text 212 35 channel;
#X obj 270 492 dac~ \$2;
#X obj 272 453 *~;
#X connect 0 0 3 0;
#X connect 1 0 2 0;
#X connect 1 0 6 0;
#X connect 2 0 1 1;
#X connect 3 0 1 0;
#X connect 6 0 28 0;
#X connect 6 1 2 0;
#X connect 10 0 28 1;
#X connect 11 0 13 0;
#X connect 12 0 11 0;
#X connect 13 0 8 0;
#X connect 14 0 12 0;
#X connect 14 0 17 0;
#X connect 15 0 16 0;
#X connect 15 0 9 0;
#X connect 15 0 19 0;
#X connect 16 0 18 0;
#X connect 17 0 2 0;
#X connect 17 0 10 0;
#X connect 19 0 20 0;
#X connect 20 0 9 0;
#X connect 22 0 23 0;
#X connect 24 0 22 0;
#X connect 28 0 15 0;
#X connect 28 0 27 0;
#X coords 0 -1 1 1 304 164 1 330 57;
