#N canvas 397 97 1107 732 10;
#X obj 64 13 inlet;
#X obj 73 326 * 6.28319;
#X obj 73 350 sin;
#X obj 73 299 / 360;
#X obj 74 261 + 1;
#X obj 74 232 f;
#X obj 74 202 bng 15 250 50 0 empty empty empty 17 7 0 10 -262144 -1
-1;
#X msg 105 196 0;
#X obj 187 76 tgl 15 0 empty empty empty 17 7 0 10 -262144 -1 -1 1
1;
#X floatatom 73 373 5 0 0 0 - - -, f 5;
#X obj 103 261 moses 360;
#X obj 73 392 + 1;
#X obj 73 414 / 2;
#X obj 73 437 * 127;
#X floatatom 117 374 5 0 0 0 - - -, f 5;
#X obj 117 393 + 1;
#X obj 117 415 / 2;
#X obj 117 438 * 127;
#X obj 117 351 cos;
#X msg 140 195 180;
#X obj 48 570 ctlout 10 \$1;
#X obj 133 571 ctlout 11 \$1;
#X obj 254 206 line;
#X floatatom 295 276 5 1 10 0 - - -, f 5;
#X obj 218 378 /;
#X msg 192 338 127;
#X floatatom 194 405 5 0 0 0 - - -, f 5;
#X obj 250 337 * 2;
#X obj 248 305 t b f;
#X obj 255 377 -;
#X obj 298 337 /;
#X floatatom 302 366 5 0 0 0 - - -, f 5;
#X floatatom 255 399 5 0 0 0 - - -, f 5;
#X floatatom 247 445 5 0 0 0 - - -, f 5;
#X obj 247 423 - 127;
#X obj 71 470 + 64;
#X obj 71 506 - 0;
#X obj 131 470 + 64;
#X obj 131 506 - 0;
#X msg 373 196 1 10000;
#X obj 191 499 sin;
#X floatatom 191 522 5 0 0 0 - - -, f 5;
#X obj 191 448 / 360;
#X obj 191 475 * 0.628319;
#X obj 230 571 ctlout 12 \$1;
#X floatatom 403 360 5 25 200 0 - - -, f 5;
#X msg 402 335 25;
#X obj 148 17 loadbang;
#X obj 269 56 bng 21 250 50 0 empty empty empty 17 7 0 10 -262144 -1
-1;
#X obj 223 55 bng 23 250 50 0 empty empty empty 17 7 0 10 -262144 -1
-1;
#X obj 167 200 metro 500;
#X msg 302 12 500;
#N canvas 735 23 450 300 MIDItoUnity 0;
#X obj 92 87 inlet;
#X obj 97 166 + 5;
#X obj 94 125 / -12.7;
#X obj 98 203 outlet;
#X obj 180 88 inlet;
#X obj 186 204 outlet;
#X obj 261 89 inlet;
#X obj 266 168 + 5;
#X obj 263 127 / -12.7;
#X obj 267 205 outlet;
#X obj 182 126 / 127;
#X obj 185 167 * 3;
#X connect 0 0 2 0;
#X connect 1 0 3 0;
#X connect 2 0 1 0;
#X connect 4 0 10 0;
#X connect 6 0 8 0;
#X connect 7 0 9 0;
#X connect 8 0 7 0;
#X connect 10 0 11 0;
#X connect 11 0 5 0;
#X restore 80 619 pd MIDItoUnity;
#X obj 73 664 pack f f f;
#X obj 73 698 outlet;
#X floatatom 387 82 5 1 8 0 channel - -, f 5;
#X floatatom 303 83 5 50 500 0 rate - -, f 5;
#X msg 87 53 1;
#X msg 471 37 2;
#X obj 224 84 hsl 60 15 1 6 0 0 empty empty empty -2 -8 0 10 -262144
-1 -1 0 1;
#X msg 309 197 6 10000;
#X obj 515 225 metro 10000;
#X obj 510 262 tgl 15 0 empty empty empty 17 7 0 10 -262144 -1 -1 0
1;
#X obj 510 282 select 1;
#X obj 250 58 tgl 15 0 empty empty empty 17 7 0 10 -262144 -1 -1 0
1;
#X connect 1 0 2 0;
#X connect 1 0 18 0;
#X connect 2 0 9 0;
#X connect 3 0 1 0;
#X connect 4 0 5 1;
#X connect 4 0 3 0;
#X connect 4 0 10 0;
#X connect 4 0 42 0;
#X connect 5 0 4 0;
#X connect 6 0 5 0;
#X connect 7 0 5 1;
#X connect 8 0 50 0;
#X connect 9 0 11 0;
#X connect 10 1 7 0;
#X connect 11 0 12 0;
#X connect 12 0 13 0;
#X connect 13 0 35 0;
#X connect 14 0 15 0;
#X connect 15 0 16 0;
#X connect 16 0 17 0;
#X connect 17 0 37 0;
#X connect 18 0 14 0;
#X connect 19 0 5 1;
#X connect 22 0 59 0;
#X connect 23 0 28 0;
#X connect 24 0 26 0;
#X connect 25 0 24 0;
#X connect 25 0 29 0;
#X connect 25 0 30 0;
#X connect 26 0 36 1;
#X connect 26 0 38 1;
#X connect 27 0 24 1;
#X connect 28 0 25 0;
#X connect 28 1 27 0;
#X connect 28 1 30 1;
#X connect 29 0 32 0;
#X connect 30 0 31 0;
#X connect 31 0 29 1;
#X connect 31 0 13 1;
#X connect 31 0 17 1;
#X connect 32 0 34 0;
#X connect 34 0 33 0;
#X connect 35 0 36 0;
#X connect 36 0 20 0;
#X connect 36 0 52 0;
#X connect 37 0 38 0;
#X connect 38 0 21 0;
#X connect 38 0 52 2;
#X connect 39 0 22 0;
#X connect 40 0 41 0;
#X connect 41 0 44 0;
#X connect 41 0 52 1;
#X connect 42 0 43 0;
#X connect 43 0 40 0;
#X connect 45 0 22 2;
#X connect 46 0 45 0;
#X connect 47 0 46 0;
#X connect 47 0 50 0;
#X connect 47 0 51 0;
#X connect 47 0 57 0;
#X connect 47 0 58 0;
#X connect 48 0 60 0;
#X connect 49 0 39 0;
#X connect 50 0 6 0;
#X connect 51 0 56 0;
#X connect 52 0 53 0;
#X connect 52 1 53 1;
#X connect 52 2 53 2;
#X connect 53 0 54 0;
#X connect 55 0 44 2;
#X connect 55 0 21 2;
#X connect 55 0 20 2;
#X connect 56 0 50 1;
#X connect 57 0 8 0;
#X connect 58 0 55 0;
#X connect 59 0 23 0;
#X connect 60 0 22 0;
#X connect 61 0 62 0;
#X connect 62 0 63 0;
#X connect 63 0 49 0;
#X connect 63 1 48 0;
#X connect 64 0 61 0;
#X coords 0 -1 1 1 274 76 1 172 29;
