#N canvas 533 227 746 386 10;
#X obj 228 211 outlet;
#X obj 369 72 r uXscale;
#X obj 433 72 r uYscale;
#X obj 366 99 / 2;
#X obj 437 100 / 2;
#X obj 154 85 /;
#X obj 95 71 /;
#X obj 205 98 /;
#X obj 496 72 r uYscale;
#X obj 95 132 + 0.5;
#X obj 151 132 + 0.5;
#X text 177 182 Unity XYZ in iosono XYZ out;
#X obj 177 210 outlet;
#X obj 279 211 outlet;
#X obj 95 21 unpack f f f;
#X obj 95 -6 inlet;
#X connect 1 0 3 0;
#X connect 2 0 4 0;
#X connect 3 0 6 1;
#X connect 4 0 5 1;
#X connect 5 0 13 0;
#X connect 6 0 9 0;
#X connect 7 0 10 0;
#X connect 8 0 7 1;
#X connect 9 0 12 0;
#X connect 10 0 0 0;
#X connect 14 0 6 0;
#X connect 14 1 5 0;
#X connect 14 2 7 0;
#X connect 15 0 14 0;
#X coords 0 -1 1 1 177 43 1 172 160;
