#N canvas 2556 -86 460 300 10;
#X obj 63 204 pack f f f;
#X obj 63 236 outlet;
#X obj 60 105 inlet;
#X obj 116 105 inlet;
#X obj 166 106 inlet;
#X obj 219 104 r uXscale;
#X obj 346 104 r uZscale;
#X obj 283 104 r uYscale;
#X obj 62 132 - 0.5;
#X obj 115 131 - 0.5;
#X obj 216 131 / 2;
#X obj 62 168 *;
#X obj 287 132 / 2;
#X obj 115 166 *;
#X obj 166 166 *;
#X text 142 203 XYZ in XZY out;
#X connect 0 0 1 0;
#X connect 2 0 8 0;
#X connect 3 0 9 0;
#X connect 4 0 14 0;
#X connect 5 0 10 0;
#X connect 6 0 14 1;
#X connect 7 0 12 0;
#X connect 8 0 11 0;
#X connect 9 0 13 0;
#X connect 10 0 11 1;
#X connect 11 0 0 0;
#X connect 12 0 13 1;
#X connect 13 0 0 2;
#X connect 14 0 0 1;
#X coords 0 -1 1 1 97 40 1 137 183;
