#N canvas 998 395 746 386 10;
#X obj 103 173 pack f f f;
#X obj 103 205 outlet;
#X obj 100 74 inlet;
#X obj 156 74 inlet;
#X obj 206 75 inlet;
#X obj 369 72 r uXscale;
#X obj 433 72 r uYscale;
#X obj 102 101 - 0.5;
#X obj 152 102 - 0.5;
#X obj 366 99 / 2;
#X obj 437 100 / 2;
#X text 176 176 XYZ in XZY out;
#X obj 155 135 /;
#X obj 102 137 /;
#X obj 206 135 /;
#X obj 496 72 r uYscale;
#X connect 0 0 1 0;
#X connect 2 0 7 0;
#X connect 3 0 8 0;
#X connect 4 0 14 0;
#X connect 5 0 9 0;
#X connect 6 0 10 0;
#X connect 7 0 13 0;
#X connect 8 0 12 0;
#X connect 9 0 13 1;
#X connect 10 0 12 1;
#X connect 12 0 0 2;
#X connect 13 0 0 0;
#X connect 14 0 0 1;
#X connect 15 0 14 1;
