#N canvas 538 434 1028 406 10;
#X obj 189 -241 inlet;
#X obj 194 -157 unpack f f f;
#X floatatom 269 -7 5 0 0 0 - - -, f 5;
#X floatatom 222 -11 5 0 0 0 - - -, f 5;
#X floatatom 147 -7 5 0 0 0 - - -, f 5;
#X obj 129 -129 + 0;
#X obj 213 -126 + 0;
#X obj 266 -125 + 0;
#X obj 232 122 ctlout 11 \$1;
#X obj 330 124 ctlout 12 \$1;
#X obj 122 118 ctlout 10 \$1;
#X obj 147 40 f;
#X obj 221 40 f;
#X obj 289 42 f;
#X obj 358 -141 metro 500;
#X obj 360 -236 inlet;
#X obj 342 -174 bng 15 250 50 0 empty empty empty 17 7 0 10 -262144
-1 -1;
#X obj 424 -233 inlet;
#X obj 350 -100 spigot;
#X obj 430 -129 tgl 15 0 empty empty empty 17 7 0 10 -262144 -1 -1
0 1;
#X obj 129 -102 + 5;
#X obj 266 -98 + 5;
#X obj 213 -99 / 3;
#X obj 212 -76 * 127;
#X obj 211 -52 + 0;
#X obj 128 -79 - 10;
#X obj 126 -49 * -12.7;
#X obj 265 -75 - 10;
#X obj 264 -51 * -12.7;
#X connect 0 0 1 0;
#X connect 1 0 5 0;
#X connect 1 1 6 0;
#X connect 1 2 7 0;
#X connect 2 0 13 1;
#X connect 2 0 8 0;
#X connect 3 0 12 1;
#X connect 3 0 9 0;
#X connect 4 0 11 1;
#X connect 4 0 10 0;
#X connect 5 0 20 0;
#X connect 6 0 22 0;
#X connect 7 0 21 0;
#X connect 14 0 18 0;
#X connect 15 0 14 1;
#X connect 15 0 16 0;
#X connect 16 0 14 0;
#X connect 17 0 14 0;
#X connect 17 0 19 0;
#X connect 18 0 13 0;
#X connect 18 0 12 0;
#X connect 18 0 11 0;
#X connect 19 0 18 1;
#X connect 20 0 25 0;
#X connect 21 0 27 0;
#X connect 22 0 23 0;
#X connect 23 0 24 0;
#X connect 24 0 3 0;
#X connect 25 0 26 0;
#X connect 26 0 4 0;
#X connect 27 0 28 0;
#X connect 28 0 2 0;
